<mxfile host="app.diagrams.net" agent="Mozilla/5.0 (Windows NT 10.0; Win64; x64) AppleWebKit/537.36 (KHTML, like Gecko) Chrome/131.0.0.0 Safari/537.36 Edg/131.0.0.0" version="24.8.9">
  <diagram name="Page-1" id="FICRAAtJHhsTxM7-8eje">
    <mxGraphModel dx="1801" dy="524" grid="1" gridSize="10" guides="1" tooltips="1" connect="1" arrows="1" fold="1" page="1" pageScale="1" pageWidth="850" pageHeight="1100" math="0" shadow="0">
      <root>
        <mxCell id="0" />
        <mxCell id="1" parent="0" />
        <mxCell id="Wrpp9K8uKuNq8Yx5-f_M-4" value="" style="edgeStyle=orthogonalEdgeStyle;rounded=0;orthogonalLoop=1;jettySize=auto;html=1;" edge="1" parent="1" source="Wrpp9K8uKuNq8Yx5-f_M-1" target="Wrpp9K8uKuNq8Yx5-f_M-2">
          <mxGeometry relative="1" as="geometry" />
        </mxCell>
        <mxCell id="Wrpp9K8uKuNq8Yx5-f_M-1" value="&lt;font data-font-src=&quot;https://fonts.googleapis.com/css?family=Sarabun&quot; face=&quot;Sarabun&quot;&gt;Start&lt;/font&gt;" style="ellipse;whiteSpace=wrap;html=1;" vertex="1" parent="1">
          <mxGeometry x="-530.0000000000001" y="50" width="130" height="30" as="geometry" />
        </mxCell>
        <mxCell id="Wrpp9K8uKuNq8Yx5-f_M-6" value="" style="edgeStyle=orthogonalEdgeStyle;rounded=0;orthogonalLoop=1;jettySize=auto;html=1;" edge="1" parent="1" source="Wrpp9K8uKuNq8Yx5-f_M-2" target="Wrpp9K8uKuNq8Yx5-f_M-5">
          <mxGeometry relative="1" as="geometry" />
        </mxCell>
        <mxCell id="Wrpp9K8uKuNq8Yx5-f_M-2" value="กำหนดตัวแปร h" style="rounded=0;whiteSpace=wrap;html=1;" vertex="1" parent="1">
          <mxGeometry x="-552.25" y="110" width="174.5" height="40" as="geometry" />
        </mxCell>
        <mxCell id="Wrpp9K8uKuNq8Yx5-f_M-9" value="" style="edgeStyle=orthogonalEdgeStyle;rounded=0;orthogonalLoop=1;jettySize=auto;html=1;" edge="1" parent="1" source="Wrpp9K8uKuNq8Yx5-f_M-3" target="Wrpp9K8uKuNq8Yx5-f_M-8">
          <mxGeometry relative="1" as="geometry" />
        </mxCell>
        <mxCell id="Wrpp9K8uKuNq8Yx5-f_M-3" value="กรอกค่าตัวแปร h&amp;nbsp;" style="shape=parallelogram;perimeter=parallelogramPerimeter;whiteSpace=wrap;html=1;fixedSize=1;" vertex="1" parent="1">
          <mxGeometry x="-530.0000000000001" y="250" width="130" height="40" as="geometry" />
        </mxCell>
        <mxCell id="Wrpp9K8uKuNq8Yx5-f_M-7" value="" style="edgeStyle=orthogonalEdgeStyle;rounded=0;orthogonalLoop=1;jettySize=auto;html=1;" edge="1" parent="1" source="Wrpp9K8uKuNq8Yx5-f_M-5" target="Wrpp9K8uKuNq8Yx5-f_M-3">
          <mxGeometry relative="1" as="geometry" />
        </mxCell>
        <mxCell id="Wrpp9K8uKuNq8Yx5-f_M-5" value="กำหนดตัวแปร w" style="rounded=0;whiteSpace=wrap;html=1;" vertex="1" parent="1">
          <mxGeometry x="-552.25" y="180" width="174.5" height="40" as="geometry" />
        </mxCell>
        <mxCell id="Wrpp9K8uKuNq8Yx5-f_M-11" value="" style="edgeStyle=orthogonalEdgeStyle;rounded=0;orthogonalLoop=1;jettySize=auto;html=1;" edge="1" parent="1" source="Wrpp9K8uKuNq8Yx5-f_M-8" target="Wrpp9K8uKuNq8Yx5-f_M-10">
          <mxGeometry relative="1" as="geometry" />
        </mxCell>
        <mxCell id="Wrpp9K8uKuNq8Yx5-f_M-8" value="กรอกค่าตัวแปร w&amp;nbsp;" style="shape=parallelogram;perimeter=parallelogramPerimeter;whiteSpace=wrap;html=1;fixedSize=1;" vertex="1" parent="1">
          <mxGeometry x="-530.0000000000001" y="320" width="130" height="40" as="geometry" />
        </mxCell>
        <mxCell id="Wrpp9K8uKuNq8Yx5-f_M-13" value="" style="edgeStyle=orthogonalEdgeStyle;rounded=0;orthogonalLoop=1;jettySize=auto;html=1;" edge="1" parent="1" source="Wrpp9K8uKuNq8Yx5-f_M-10" target="Wrpp9K8uKuNq8Yx5-f_M-12">
          <mxGeometry relative="1" as="geometry" />
        </mxCell>
        <mxCell id="Wrpp9K8uKuNq8Yx5-f_M-10" value="คำนวนหาพื้นที่สามเหลี่ยม โดยใข้สูตร w * h * 0.5" style="rounded=0;whiteSpace=wrap;html=1;" vertex="1" parent="1">
          <mxGeometry x="-552.25" y="390" width="174.5" height="40" as="geometry" />
        </mxCell>
        <mxCell id="Wrpp9K8uKuNq8Yx5-f_M-15" value="" style="edgeStyle=orthogonalEdgeStyle;rounded=0;orthogonalLoop=1;jettySize=auto;html=1;" edge="1" parent="1" source="Wrpp9K8uKuNq8Yx5-f_M-12" target="Wrpp9K8uKuNq8Yx5-f_M-14">
          <mxGeometry relative="1" as="geometry" />
        </mxCell>
        <mxCell id="Wrpp9K8uKuNq8Yx5-f_M-12" value="แสดงค่าของพื้นที่่" style="shape=parallelogram;perimeter=parallelogramPerimeter;whiteSpace=wrap;html=1;fixedSize=1;" vertex="1" parent="1">
          <mxGeometry x="-530.0000000000001" y="460" width="130" height="40" as="geometry" />
        </mxCell>
        <mxCell id="Wrpp9K8uKuNq8Yx5-f_M-14" value="&lt;font data-font-src=&quot;https://fonts.googleapis.com/css?family=Sarabun&quot; face=&quot;Sarabun&quot;&gt;End&lt;/font&gt;" style="ellipse;whiteSpace=wrap;html=1;" vertex="1" parent="1">
          <mxGeometry x="-530.0000000000001" y="535" width="130" height="30" as="geometry" />
        </mxCell>
      </root>
    </mxGraphModel>
  </diagram>
</mxfile>
